<?xml version="1.0" encoding="utf-8"?>
<!-- Generator: Adobe Illustrator 17.0.0, SVG Export Plug-In . SVG Version: 6.00 Build 0)  -->
<!DOCTYPE svg PUBLIC "-//W3C//DTD SVG 1.1//EN" "http://www.w3.org/Graphics/SVG/1.1/DTD/svg11.dtd">
<svg xmlns="http://www.w3.org/2000/svg" xmlns:xlink="http://www.w3.org/1999/xlink" version="1.1" id="Capa_1" x="0px" y="0px" width="160px" height="40px" viewBox="0 10 160 40" enable-background="new 0 10 160 40" xml:space="preserve">
<g>
	<path fill="#222221" d="M7.451,34.156l-1.167-1.59c1.565-0.53,2.387-1.566,2.387-4.191V14.528h2.228v14.084   C10.899,32.062,9.254,33.466,7.451,34.156z"/>
	<path fill="#222221" d="M18.379,31.45l-0.053-0.981c-0.398,0.637-1.008,1.194-2.228,1.194c-1.883,0-2.997-1.406-2.997-3.554v-8.673   h2.095v8.409c0,1.194,0.424,1.989,1.459,1.989c0.928,0,1.485-0.849,1.485-2.016v-8.382h2.069v12.016h-1.83V31.45z"/>
	<path fill="#222221" d="M28.086,31.663c-0.637-0.133-1.247-0.637-1.459-1.326c-0.424,0.849-1.247,1.326-2.148,1.326   c-1.591,0-2.733-1.326-2.733-3.474c0-2.414,1.247-3.846,3.024-4.006l1.273-0.106v-0.928c0-1.3-0.53-2.095-1.565-2.095   c-0.743,0-1.512,0.424-1.911,0.875l-0.239-1.83c0.557-0.504,1.406-0.875,2.387-0.875c2.069,0,3.395,1.459,3.395,4.164V28.4   c0,1.114,0.477,1.591,1.034,1.777L28.086,31.663z M26.043,25.828l-1.034,0.106c-0.796,0.08-1.353,0.955-1.353,2.228   c0,1.008,0.451,1.724,1.008,1.724c0.743,0,1.379-0.902,1.379-2.042V25.828z"/>
	<path fill="#222221" d="M35.379,31.45v-8.408c0-1.194-0.451-1.989-1.432-1.989s-1.512,0.849-1.512,2.016v8.381h-2.095V19.436h1.857   l0.053,1.008c0.424-0.663,1.008-1.22,2.228-1.22c1.857,0,2.97,1.406,2.97,3.554v8.673H35.379z"/>
	<path fill="#222221" d="M42.936,34.156l-1.167-1.59c1.565-0.53,2.387-1.566,2.387-4.191V14.528h2.228v14.084   C46.384,32.062,44.74,33.466,42.936,34.156z"/>
	<path fill="#222221" d="M55.482,24.873l-1.061,1.034h-4.084c0.027,1.989,0.849,3.953,2.52,3.953c0.875,0,1.618-0.371,2.148-0.928   l-0.265,2.069c-0.451,0.345-1.167,0.664-2.228,0.664c-2.52,0-4.217-2.493-4.217-6.233c0-3.767,1.697-6.207,3.846-6.207   c2.229,0,3.395,2.175,3.395,4.51C55.534,23.998,55.534,24.661,55.482,24.873z M52.193,20.921c-0.902,0-1.671,1.485-1.804,3.289   h3.156c0-0.106,0.027-0.424,0.027-0.53C53.572,22.353,53.068,20.921,52.193,20.921z"/>
	<path fill="#222221" d="M58.929,31.663c-0.955,0-1.725-0.398-2.095-0.769l-0.265-2.254c0.477,0.61,1.3,1.167,2.148,1.167   c0.822,0,1.3-0.557,1.3-1.3c0-0.875-0.424-1.566-1.114-2.281c-1.353-1.406-2.069-2.52-2.069-3.925c0-1.91,1.167-3.077,2.917-3.077   c0.849,0,1.591,0.371,1.804,0.61l-0.212,1.857c-0.265-0.318-0.743-0.61-1.432-0.61c-0.637,0-1.087,0.451-1.087,1.087   c0,0.743,0.292,1.22,1.14,2.122c1.485,1.565,2.148,2.573,2.148,4.058C62.112,30.232,60.971,31.663,58.929,31.663z"/>
	<path fill="#222221" d="M68.902,31.45l-0.053-0.981c-0.398,0.637-1.008,1.194-2.228,1.194c-1.883,0-2.997-1.406-2.997-3.554v-8.673   h2.095v8.409c0,1.194,0.424,1.989,1.459,1.989c0.928,0,1.485-0.849,1.485-2.016v-8.382h2.069v12.016h-1.83V31.45z M67.017,17.977   l-0.769-0.849c1.087-0.451,2.334-1.353,3.13-2.574l0.318,1.591C68.874,17.128,67.999,17.578,67.017,17.977z"/>
	<path fill="#222221" d="M74.497,31.663c-0.955,0-1.725-0.398-2.095-0.769l-0.265-2.254c0.477,0.61,1.3,1.167,2.148,1.167   c0.822,0,1.3-0.557,1.3-1.3c0-0.875-0.424-1.566-1.114-2.281c-1.353-1.406-2.069-2.52-2.069-3.925c0-1.91,1.167-3.077,2.917-3.077   c0.849,0,1.591,0.371,1.804,0.61L76.91,21.69c-0.265-0.318-0.743-0.61-1.432-0.61c-0.637,0-1.087,0.451-1.087,1.087   c0,0.743,0.292,1.22,1.14,2.122c1.485,1.565,2.148,2.573,2.148,4.058C77.679,30.232,76.539,31.663,74.497,31.663z"/>
	<path fill="#222221" d="M89.88,31.45l-3.077-7.559h-1.115v7.559H83.54V14.528h3.476c1.963,0,3.66,1.857,3.66,4.669   c0,1.963-0.796,3.395-1.83,4.031l3.368,8.222C92.213,31.45,89.88,31.45,89.88,31.45z M86.776,16.358h-1.087v5.623h1.087   c0.902,0,1.697-1.008,1.697-2.785S87.678,16.358,86.776,16.358z"/>
	<path fill="#222221" d="M96.722,31.663c-2.52,0-4.031-2.546-4.031-6.233c0-3.635,1.512-6.207,4.031-6.207   c2.546,0,4.084,2.573,4.084,6.207C100.807,29.116,99.268,31.663,96.722,31.663z M96.749,21.08c-1.087,0-1.937,1.777-1.937,4.351   c0,2.599,0.85,4.376,1.937,4.376c1.086,0,1.91-1.777,1.91-4.376C98.658,22.857,97.836,21.08,96.749,21.08z"/>
	<path fill="#222221" d="M108.047,31.45l-0.08-0.822c-0.371,0.583-1.114,1.035-2.175,1.035c-1.911,0-3.741-2.307-3.741-6.18   c0-3.66,1.485-6.26,4.005-6.26c0.664,0,1.22,0.239,1.591,0.557v-5.916h2.043V31.45C109.692,31.45,108.047,31.45,108.047,31.45z    M107.649,21.849c-0.318-0.424-0.849-0.769-1.432-0.769c-1.194,0-2.043,1.804-2.043,4.403c0,2.546,0.85,4.323,2.043,4.323   c0.61,0,1.114-0.398,1.432-0.822V21.849z"/>
	<path fill="#222221" d="M116.508,21.452c-1.433,0-2.573,1.485-2.573,3.793v6.206h-2.069V19.436h1.936l0.053,1.724   c0.345-1.167,1.3-1.83,2.679-1.83l0.186,2.148C116.694,21.478,116.586,21.452,116.508,21.452z"/>
	<path fill="#222221" d="M118.894,17.977l-0.769-0.849c1.087-0.451,2.36-1.353,3.13-2.574l0.318,1.591   C120.777,17.128,119.902,17.578,118.894,17.977z M118.257,31.45V19.436h2.069v12.016h-2.069V31.45z"/>
	<path fill="#222221" d="M125.657,36.703c-2.281,0-3.608-1.75-3.608-4.031c0-1.911,0.85-2.997,1.672-3.368l-0.955-1.14   c0.053-0.69,0.477-1.353,0.981-1.618c-0.769-0.663-1.3-1.671-1.3-3.368c0-2.281,1.167-3.952,3.156-3.952   c0.424,0,0.875,0.133,1.114,0.239c0.318,0.133,0.69,0.212,1.114,0.212c0.504,0,0.928-0.186,1.168-0.398l0.186,1.75   c-0.133,0.186-0.451,0.292-0.769,0.318c0.159,0.345,0.318,1.035,0.318,1.83c0,2.201-1.087,3.872-2.97,3.953   c-0.557,0-0.902,0.292-0.902,0.69c0,0.212,0.186,0.53,0.504,0.637l1.326,0.451c1.644,0.557,2.573,1.989,2.573,3.899   C129.264,34.978,127.938,36.703,125.657,36.703z M126.162,30.575l-0.902-0.239c-0.743,0.186-1.247,0.928-1.247,2.387   c0,1.273,0.557,2.387,1.644,2.387c1.061,0,1.644-1.087,1.644-2.281C127.302,31.743,126.877,30.761,126.162,30.575z M125.605,20.815   c-0.744,0-1.22,0.981-1.22,2.387s0.477,2.36,1.22,2.36c0.663,0,1.22-0.955,1.22-2.36C126.824,21.796,126.32,20.815,125.605,20.815z   "/>
	<path fill="#222221" d="M135.974,31.45l-0.054-0.981c-0.397,0.637-1.008,1.194-2.228,1.194c-1.883,0-2.998-1.406-2.998-3.554   v-8.673h2.095v8.409c0,1.194,0.424,1.989,1.459,1.989c0.928,0,1.485-0.849,1.485-2.016v-8.382h2.069v12.016h-1.828V31.45z"/>
	<path fill="#222221" d="M146.583,24.873l-1.061,1.034h-4.084c0.025,1.989,0.849,3.953,2.52,3.953c0.875,0,1.618-0.371,2.147-0.928   l-0.264,2.069c-0.451,0.345-1.168,0.664-2.229,0.664c-2.52,0-4.217-2.493-4.217-6.233c0-3.767,1.697-6.207,3.846-6.207   c2.229,0,3.395,2.175,3.395,4.51C146.636,23.998,146.636,24.661,146.583,24.873z M143.293,20.921c-0.902,0-1.671,1.485-1.804,3.289   h3.156c0-0.106,0.025-0.424,0.025-0.53C144.673,22.353,144.168,20.921,143.293,20.921z"/>
	<path fill="#222221" d="M147.616,31.45v-0.397l2.123-6.499c0.318-1.087,0.743-2.334,1.114-3.262l-0.027-0.053h-2.811v-1.804h5.464   v0.398l-2.122,6.578c-0.371,1.087-0.743,2.175-1.114,3.183l0.025,0.053h3.448v1.804C153.716,31.45,147.616,31.45,147.616,31.45z"/>
	<path fill="#222221" d="M68.473,46.038h-1.556v-7.757h1.374c0.802,0,1.605,0.608,1.605,1.957c0,0.705-0.255,1.324-0.608,1.471   c0.474,0.134,1.034,0.839,1.034,2.006C70.322,45.199,69.482,46.038,68.473,46.038z M68.205,39.083h-0.34v2.299h0.353   c0.328,0,0.717-0.329,0.717-1.143C68.935,39.425,68.546,39.083,68.205,39.083z M68.363,42.196h-0.498v3.016h0.498   c0.486,0,0.948-0.498,0.948-1.495C69.312,42.707,68.85,42.196,68.363,42.196z"/>
	<path fill="#222221" d="M73.786,46.135c-0.292-0.061-0.571-0.292-0.669-0.608c-0.194,0.39-0.571,0.608-0.985,0.608   c-0.729,0-1.252-0.608-1.252-1.591c0-1.107,0.571-1.764,1.386-1.837l0.583-0.049v-0.425c0-0.596-0.243-0.96-0.717-0.96   c-0.34,0-0.693,0.194-0.875,0.401l-0.109-0.839c0.255-0.231,0.644-0.401,1.094-0.401c0.948,0,1.556,0.667,1.556,1.908v2.299   c0,0.511,0.219,0.729,0.474,0.813L73.786,46.135z M72.849,43.461l-0.474,0.049c-0.365,0.036-0.62,0.438-0.62,1.021   c0,0.462,0.207,0.791,0.462,0.791c0.34,0,0.632-0.413,0.632-0.937V43.461z"/>
	<path fill="#222221" d="M77.031,41.455c-0.656,0-1.179,0.681-1.179,1.738v2.845h-0.948v-5.507h0.887l0.024,0.79   c0.158-0.535,0.596-0.839,1.228-0.839l0.085,0.985C77.116,41.467,77.067,41.455,77.031,41.455z"/>
	<path fill="#222221" d="M78.125,39.861l-0.353-0.389c0.498-0.208,1.082-0.621,1.434-1.179l0.146,0.729   C78.988,39.473,78.587,39.679,78.125,39.861z M77.833,46.038v-5.507h0.948v5.507H77.833z"/>
	<path fill="#222221" d="M82.137,41.345h-1.095v3.185c0,0.475,0.207,0.729,0.523,0.729c0.159,0,0.292-0.036,0.401-0.134   l-0.111,0.852c-0.097,0.073-0.28,0.109-0.511,0.109c-0.742,0-1.252-0.547-1.252-1.447v-3.294h-0.632v-0.814h0.644v-1.058   l0.936-0.438v1.496h1.167L82.137,41.345z"/>
	<path fill="#222221" d="M84.399,46.135c-1.155,0-1.848-1.167-1.848-2.857c0-1.665,0.693-2.845,1.848-2.845   c1.167,0,1.872,1.179,1.872,2.845C86.271,44.968,85.565,46.135,84.399,46.135z M84.41,41.285c-0.498,0-0.887,0.814-0.887,1.995   c0,1.191,0.389,2.006,0.887,2.006c0.498,0,0.875-0.814,0.875-2.006C85.286,42.099,84.909,41.285,84.41,41.285z"/>
	<path fill="#222221" d="M89.285,46.038v-3.853c0-0.547-0.208-0.912-0.656-0.912c-0.45,0-0.693,0.39-0.693,0.924v3.842h-0.96v-5.507   h0.851l0.024,0.462c0.195-0.304,0.462-0.559,1.021-0.559c0.852,0,1.361,0.644,1.361,1.629v3.976h-0.948V46.038z"/>
	<path fill="#222221" d="M92.81,46.135c-1.155,0-1.848-1.167-1.848-2.857c0-1.665,0.693-2.845,1.848-2.845   c1.168,0,1.872,1.179,1.872,2.845C94.682,44.968,93.977,46.135,92.81,46.135z M92.824,41.285c-0.498,0-0.888,0.814-0.888,1.995   c0,1.191,0.39,2.006,0.888,2.006c0.498,0,0.875-0.814,0.875-2.006C93.699,42.099,93.322,41.285,92.824,41.285z"/>
</g>
</svg>
